# xmcd
#
# Track frame offsets:
#  150
#  14438
#  25275
#  43183
#  59298
#  70080
#  84392
#  96028
#  111113
#  129816
#  142621
#  162134
#  177404
#  191968
#  205495
#  222527
#  243121
#  255684
#  268522
#  279492
#  295541
#  311504
#
# Disc length: 4294 seconds
#
# Revision: 0
# Processed by: cddbd v1.5.2PL0 Copyright (c) Steve Scherf et al.
# Submitted via: Collectorz.com_Music_Collector 6.11
#
DISCID=3a10c416
DTITLE=Eddie Rabbitt - Eddie Rabbitt-The Platinum Collection
DYEAR=2006
DGENRE=Country
TTITLE0=I Love A Rainy Night
TTITLE1=Drinkin' My Baby (Off My Mind)
TTITLE2=Kentucky Rain
TTITLE3=Rocky Mountain Music
TTITLE4=Two Dollars In The Jukebox
TTITLE5=I Can't Help Myself
TTITLE6=Hearts On Fire
TTITLE7=You Don't Love Me Anymore
TTITLE8=I Just Want To Love You
TTITLE9=Every Which Way But Loose
TTITLE10=Suspicions
TTITLE11=Pour Me Another Tequila
TTITLE12=Drivin' My Life Away
TTITLE13=Nothing Like Falling In Love
TTITLE14=Is There A Country Song On The Jukebox
TTITLE15=Song Of Ireland
TTITLE16=I Can't Get The Ring Off My Finger
TTITLE17=Could You Love A Poor Boy Dolly
TTITLE18=Pure Love
TTITLE19=Amazing Love
TTITLE20=We Can't Go On Living Like This
TTITLE21=Plain As The Pain On My Face
EXTD=
EXTT0=
EXTT1=
EXTT2=
EXTT3=
EXTT4=
EXTT5=
EXTT6=
EXTT7=
EXTT8=
EXTT9=
EXTT10=
EXTT11=
EXTT12=
EXTT13=
EXTT14=
EXTT15=
EXTT16=
EXTT17=
EXTT18=
EXTT19=
EXTT20=
EXTT21=
PLAYORDER=
